<?xml version="1.0" encoding="utf-8"?>
<!-- Generator: Adobe Illustrator 24.0.1, SVG Export Plug-In . SVG Version: 6.00 Build 0)  -->
<svg version="1.1" id="Layer_1" xmlns="http://www.w3.org/2000/svg" xmlns:xlink="http://www.w3.org/1999/xlink" x="0px" y="0px"
	 viewBox="0 0 16.23 15.94" style="enable-background:new 0 0 16.23 15.94;" xml:space="preserve">
<style type="text/css">
	.st0{fill:#F13A11;}
	.st1{fill:#FFFFFF;}
</style>
<g>
	<path class="st1" d="M16.14,2.29c0,4.22,0,8.44,0,12.66c-0.2,0.69-0.65,0.86-1.28,0.86c-4.5-0.01-9,0-13.5-0.01
		c-0.14,0-0.28,0-0.42-0.04c-0.5-0.13-0.77-0.52-0.77-1.08c0-4.05,0-8.1,0-12.14c0-0.04,0-0.07,0-0.11C0.2,1.85,0.62,1.43,1.19,1.41
		c0.21-0.01,0.42,0,0.62,0c0.37,0,0.74,0,1.12,0c0,0.07,0,0.12,0,0.18c0,0.49-0.01,0.98,0.01,1.47c0.01,0.19,0.03,0.4,0.11,0.57
		c0.21,0.46,0.6,0.66,1.11,0.66c0.81,0,1.28-0.46,1.28-1.27c0-0.48,0-0.96,0-1.43c0-0.05,0-0.11,0-0.16c1.86,0,3.7,0,5.55,0
		c0,0.06,0,0.12,0,0.18c0,0.49,0,0.99,0,1.48c0,0.5,0.22,0.88,0.69,1.09C12,4.31,12.34,4.3,12.66,4.24
		c0.56-0.11,0.84-0.45,0.84-1.02c0-0.54,0-1.08,0-1.62c0-0.06,0-0.11,0-0.17c0.59,0,1.16-0.01,1.73,0c0.11,0,0.23,0.05,0.34,0.1
		C15.9,1.68,16.06,1.96,16.14,2.29z M1.21,14.78c4.64,0,9.27,0,13.9,0c0-3.11,0-6.2,0-9.31c-4.64,0-9.27,0-13.9,0
		C1.21,8.57,1.21,11.67,1.21,14.78z"/>
	<path class="st1" d="M3.45,1.96c0-0.38,0-0.76,0-1.14c0-0.43,0.26-0.68,0.69-0.69c0.09,0,0.18,0,0.26,0.01
		C4.72,0.2,4.93,0.44,4.93,0.78c0.01,0.78,0.01,1.56,0,2.34c0,0.41-0.27,0.65-0.68,0.66c-0.08,0-0.17,0-0.25-0.01
		C3.67,3.72,3.45,3.48,3.45,3.14C3.44,2.75,3.45,2.35,3.45,1.96C3.45,1.96,3.45,1.96,3.45,1.96z"/>
	<path class="st1" d="M12.99,1.94c0,0.37,0,0.75,0,1.12c0,0.44-0.25,0.69-0.7,0.69c-0.07,0-0.15,0-0.22,0
		c-0.28-0.02-0.52-0.24-0.55-0.52c-0.02-0.15-0.02-0.31-0.02-0.47c0-0.63,0-1.27,0-1.9c0-0.28,0.06-0.53,0.33-0.66
		c0.28-0.14,0.58-0.14,0.85,0.01c0.21,0.11,0.3,0.31,0.3,0.54C13,1.15,12.99,1.55,12.99,1.94z"/>
	<path class="st1" d="M3.61,13.79c-0.28,0-0.56,0-0.84,0c-0.14,0-0.21-0.05-0.21-0.2c0-0.48,0-0.97,0-1.45
		c0-0.14,0.05-0.21,0.2-0.21c0.57,0,1.13,0,1.7,0c0.15,0,0.2,0.06,0.2,0.21c0,0.48,0,0.96,0,1.43c0,0.18-0.04,0.21-0.22,0.22
		C4.17,13.79,3.89,13.79,3.61,13.79z"/>
	<path class="st1" d="M6.61,13.79c-0.28,0-0.56,0-0.84,0c-0.14,0-0.21-0.05-0.21-0.2c0-0.49,0-0.98,0-1.46
		c0-0.14,0.07-0.19,0.2-0.19c0.57,0,1.13,0,1.7,0c0.14,0,0.2,0.06,0.2,0.21c0,0.48,0,0.96,0,1.43c0,0.18-0.04,0.21-0.22,0.22
		C7.16,13.79,6.88,13.79,6.61,13.79z"/>
	<path class="st1" d="M9.59,13.79c-0.28,0-0.56,0-0.84,0c-0.14,0-0.2-0.05-0.2-0.2c0-0.49,0-0.98,0-1.46c0-0.14,0.06-0.2,0.19-0.2
		c0.57,0,1.14,0,1.71,0c0.14,0,0.19,0.07,0.19,0.2c0,0.48,0,0.97,0,1.45c0,0.15-0.06,0.21-0.2,0.21
		C10.17,13.79,9.88,13.79,9.59,13.79z"/>
	<path class="st1" d="M12.59,13.79c-0.28,0-0.56,0-0.84,0c-0.14,0-0.2-0.05-0.2-0.19c0-0.49,0-0.98,0-1.46c0-0.14,0.05-0.2,0.19-0.2
		c0.57,0,1.14,0,1.71,0c0.14,0,0.19,0.06,0.19,0.2c0,0.48,0,0.97,0,1.45c0,0.17-0.04,0.21-0.22,0.21
		C13.15,13.79,12.87,13.79,12.59,13.79z"/>
	<path class="st1" d="M9.6,8.59c-0.28,0-0.56,0-0.84,0c-0.14,0-0.21-0.05-0.21-0.2c0-0.49,0-0.98,0-1.46c0-0.13,0.05-0.19,0.18-0.19
		c0.58,0,1.15,0,1.73,0c0.13,0,0.19,0.06,0.19,0.19c0,0.49,0,0.98,0,1.46c0,0.15-0.07,0.2-0.21,0.2C10.17,8.58,9.88,8.59,9.6,8.59z"
		/>
	<path class="st1" d="M12.59,8.59c-0.28,0-0.56,0-0.84,0c-0.14,0-0.2-0.05-0.2-0.19c0-0.49,0-0.99,0-1.48
		c0-0.13,0.05-0.18,0.18-0.18c0.58,0,1.16,0,1.74,0c0.12,0,0.18,0.06,0.18,0.18c0,0.49,0,0.99,0,1.48c0,0.13-0.05,0.19-0.19,0.19
		C13.17,8.58,12.88,8.59,12.59,8.59z"/>
	<path class="st1" d="M3.62,11.19c-0.29,0-0.57,0-0.86,0c-0.14,0-0.2-0.05-0.2-0.19c0-0.49,0-0.98,0-1.46c0-0.14,0.05-0.2,0.19-0.2
		c0.57,0,1.14,0,1.71,0c0.13,0,0.19,0.05,0.19,0.19c0,0.49,0,0.99,0,1.48c0,0.13-0.06,0.19-0.19,0.19
		C4.19,11.18,3.91,11.19,3.62,11.19z"/>
	<path class="st1" d="M6.61,9.33c0.28,0,0.56,0,0.84,0c0.15,0,0.21,0.06,0.2,0.2c0,0.48,0,0.97,0,1.45c0,0.14-0.05,0.2-0.19,0.2
		c-0.57,0-1.14,0-1.71,0c-0.14,0-0.2-0.06-0.19-0.2c0-0.49,0-0.98,0-1.46c0-0.14,0.06-0.2,0.2-0.19C6.04,9.34,6.33,9.33,6.61,9.33z"
		/>
	<path class="st1" d="M9.6,9.33c0.29,0,0.57,0,0.86,0c0.14,0,0.2,0.06,0.19,0.2c0,0.49,0,0.98,0,1.46c0,0.13-0.05,0.19-0.18,0.19
		c-0.58,0-1.15,0-1.73,0c-0.13,0-0.19-0.06-0.19-0.19c0-0.49,0-0.99,0-1.48c0-0.13,0.06-0.19,0.19-0.18
		C9.03,9.34,9.32,9.33,9.6,9.33z"/>
	<path class="st1" d="M12.6,9.33c0.28,0,0.56,0,0.84,0c0.14,0,0.21,0.05,0.21,0.2c0,0.49,0,0.98,0,1.46c0,0.13-0.06,0.19-0.19,0.19
		c-0.58,0-1.15,0-1.73,0c-0.12,0-0.18-0.05-0.18-0.17c0-0.5,0-1,0-1.5c0-0.14,0.06-0.18,0.19-0.18C12.03,9.34,12.31,9.33,12.6,9.33z
		"/>
</g>
</svg>
