<?xml version="1.0" encoding="utf-8"?>
<!-- Generator: Adobe Illustrator 24.0.1, SVG Export Plug-In . SVG Version: 6.00 Build 0)  -->
<svg version="1.1" id="Layer_1" xmlns="http://www.w3.org/2000/svg" xmlns:xlink="http://www.w3.org/1999/xlink" x="0px" y="0px"
	 viewBox="0 0 18.2 13.62" style="enable-background:new 0 0 18.2 13.62;" xml:space="preserve">
<style type="text/css">
	.st0{fill:#F13A11;}
	.st1{fill:#FFFFFF;}
</style>
<g>
	<g>
		<path class="st0" d="M18.07,12.09c-0.05,0.14-0.08,0.29-0.14,0.43c-0.29,0.63-0.78,0.95-1.47,1c-0.05,0-0.11,0-0.16,0
			c-4.81,0-9.63,0-14.44,0c-0.81,0-1.43-0.42-1.67-1.12c-0.06-0.18-0.09-0.38-0.09-0.57C0.1,8.47,0.1,5.11,0.1,1.75
			c0-0.95,0.71-1.66,1.66-1.69c0.27-0.01,0.55,0,0.82,0c4.57,0,9.15,0,13.72,0c0.81,0,1.44,0.42,1.68,1.13
			c0.03,0.1,0.06,0.2,0.09,0.3C18.07,5.03,18.07,8.56,18.07,12.09z M1.15,3.27c0,0.07,0,0.12,0,0.16c0,2.79,0,5.58,0,8.37
			c0,0.42,0.24,0.67,0.66,0.67c4.84,0,9.68,0,14.53,0c0.43,0,0.67-0.25,0.67-0.68c0-2.78,0-5.57,0-8.35c0-0.05-0.01-0.1-0.01-0.16
			c-0.08,0.05-0.15,0.09-0.21,0.14c-2.24,1.49-4.47,2.98-6.71,4.47C9.4,8.34,8.76,8.33,8.07,7.88c-2.25-1.5-4.49-3-6.74-4.49
			C1.28,3.35,1.23,3.32,1.15,3.27z M9.08,1.11c-0.15,0-0.3,0-0.46,0c-2.25,0-4.5,0-6.75,0.01c-0.16,0-0.33,0.04-0.46,0.12
			C1.05,1.47,1.07,1.95,1.45,2.2c2.4,1.6,4.79,3.2,7.19,4.79c0.35,0.24,0.54,0.24,0.9,0c1.44-0.96,2.88-1.92,4.32-2.88
			c0.96-0.64,1.92-1.28,2.87-1.92c0.27-0.18,0.35-0.43,0.25-0.69c-0.1-0.25-0.32-0.38-0.65-0.38C13.91,1.11,11.49,1.11,9.08,1.11z"
			/>
	</g>
</g>
</svg>
