<?xml version="1.0" encoding="utf-8"?>
<!-- Generator: Adobe Illustrator 24.0.1, SVG Export Plug-In . SVG Version: 6.00 Build 0)  -->
<svg version="1.1" id="Layer_1" xmlns="http://www.w3.org/2000/svg" xmlns:xlink="http://www.w3.org/1999/xlink" x="0px" y="0px"
	 viewBox="0 0 11.34 18.15" style="enable-background:new 0 0 11.34 18.15;" xml:space="preserve">
<style type="text/css">
	.st0{fill:#F13A11;}
	.st1{fill:#FFFFFF;}
</style>
<g>
	<path class="st0" d="M11.07,5.05c-0.38-2.29-1.7-3.8-3.91-4.51c-0.34-0.11-0.7-0.14-1.05-0.21c-0.3,0-0.59,0-0.89,0
		C5.18,0.33,5.14,0.35,5.11,0.35c-1.92,0.24-3.35,1.2-4.27,2.89c-0.7,1.27-0.75,2.63-0.46,4.03c0.3,1.45,0.81,2.84,1.4,4.19
		c0.87,1.99,1.86,3.93,2.91,5.83c0.21,0.39,0.53,0.57,0.95,0.58c0.43,0,0.78-0.16,0.99-0.56c0.74-1.43,1.5-2.86,2.21-4.31
		c0.8-1.62,1.48-3.28,1.95-5.03C11.05,7.02,11.24,6.04,11.07,5.05z"/>
</g>
<circle class="st1" cx="5.67" cy="5.92" r="3.75"/>
</svg>
