<?xml version="1.0" encoding="utf-8"?>
<!-- Generator: Adobe Illustrator 24.0.1, SVG Export Plug-In . SVG Version: 6.00 Build 0)  -->
<svg version="1.1" id="Layer_1" xmlns="http://www.w3.org/2000/svg" xmlns:xlink="http://www.w3.org/1999/xlink" x="0px" y="0px"
	 viewBox="0 0 17.94 14.62" style="enable-background:new 0 0 17.94 14.62;" xml:space="preserve">
<style type="text/css">
	.st0{fill:#666262;}
	.st1{fill:#FFFFFF;}
	.st2{fill:#F13A11;}
</style>
<g>
	<g>
		<path class="st0" d="M0.01,12.97c0.04,0.03,0.05,0.05,0.07,0.06c0.81,0.51,1.68,0.9,2.6,1.16c1.46,0.42,2.94,0.51,4.45,0.32
			c1.59-0.21,3.08-0.72,4.38-1.65c3.09-2.22,4.58-5.27,4.59-9.06c0-0.08,0.05-0.17,0.11-0.23c0.27-0.25,0.56-0.46,0.81-0.72
			c0.32-0.33,0.6-0.69,0.89-1.04c-0.01-0.01-0.03-0.03-0.04-0.04c-0.63,0.26-1.28,0.46-1.97,0.52c0.71-0.5,1.23-1.13,1.51-1.99
			c-0.08,0.04-0.13,0.06-0.17,0.09C16.62,0.74,15.94,1,15.23,1.14C15.16,1.16,15.05,1.13,15,1.08c-1.03-0.96-2.23-1.27-3.6-0.93
			C10.07,0.5,8.96,1.76,8.78,3.12C8.71,3.59,8.72,4.06,8.81,4.54c-3.09-0.21-5.6-1.5-7.59-3.84C0.8,1.42,0.64,2.19,0.75,2.99
			C0.88,4.07,1.41,4.93,2.33,5.6C1.72,5.59,1.2,5.42,0.7,5.17c-0.05,1.4,0.88,3.15,2.89,3.65C3.05,8.96,2.53,8.95,1.97,8.88
			c0.63,1.57,1.75,2.42,3.43,2.57C3.79,12.67,2.01,13.15,0.01,12.97z"/>
	</g>
	<g>
		<path class="st0" d="M0.01,12.97c1.99,0.18,3.77-0.3,5.38-1.52c-1.68-0.15-2.8-1-3.43-2.57c0.56,0.07,1.08,0.08,1.62-0.07
			C1.58,8.31,0.65,6.56,0.7,5.17C1.2,5.42,1.72,5.59,2.33,5.6C1.41,4.93,0.88,4.07,0.75,2.99C0.64,2.19,0.8,1.42,1.22,0.7
			c1.99,2.34,4.51,3.64,7.59,3.84c-0.09-0.49-0.1-0.95-0.04-1.42c0.18-1.36,1.3-2.63,2.63-2.97c1.37-0.35,2.56-0.04,3.6,0.93
			c0.05,0.05,0.16,0.08,0.22,0.06c0.71-0.15,1.39-0.4,2.03-0.76c0.04-0.03,0.09-0.05,0.17-0.09c-0.28,0.86-0.8,1.49-1.51,1.99
			c0.69-0.07,1.34-0.26,1.97-0.52c0.01,0.01,0.03,0.03,0.04,0.04c-0.3,0.35-0.58,0.71-0.89,1.04c-0.25,0.26-0.55,0.47-0.81,0.72
			C16.15,3.62,16.1,3.72,16.1,3.8c0,3.79-1.5,6.84-4.59,9.06c-1.3,0.94-2.79,1.44-4.38,1.65c-1.5,0.2-2.99,0.1-4.45-0.32
			c-0.92-0.26-1.79-0.66-2.6-1.16C0.07,13.02,0.05,13,0.01,12.97z"/>
	</g>
</g>
</svg>
