<?xml version="1.0" encoding="utf-8"?>
<!-- Generator: Adobe Illustrator 24.0.1, SVG Export Plug-In . SVG Version: 6.00 Build 0)  -->
<svg version="1.1" id="Layer_1" xmlns="http://www.w3.org/2000/svg" xmlns:xlink="http://www.w3.org/1999/xlink" x="0px" y="0px"
	 viewBox="0 0 7.16 15.35" style="enable-background:new 0 0 7.16 15.35;" xml:space="preserve">
<style type="text/css">
	.st0{fill:#F13A11;}
	.st1{fill:#FFFFFF;}
</style>
<g>
	<g>
		<path class="st0" d="M0.02,7.69c0.07,0,0.14,0,0.2,0c0.36,0,0.73,0.01,1.09,0c0.18-0.01,0.22,0.05,0.22,0.22
			c-0.01,2.4,0,4.79,0,7.19c0,0.07,0,0.15,0,0.22c1.07,0,2.12,0,3.19,0c0-2.55,0-5.08,0-7.64c0.72,0,1.42,0,2.14,0
			c0.09-0.91,0.18-1.79,0.28-2.7c-0.82,0-1.62,0-2.42,0c0-0.55,0-1.07,0-1.6c0.01-0.48,0.26-0.72,0.74-0.72c0.49,0,0.97,0,1.46,0
			c0.06,0,0.12,0,0.18,0c0-0.89,0-1.75,0-2.65c-1,0.02-1.98,0-2.96,0.06C3.39,0.13,2.76,0.45,2.27,1.02
			C1.82,1.55,1.59,2.19,1.55,2.88C1.52,3.51,1.53,4.14,1.53,4.78c0,0.07,0,0.13,0,0.22c-0.52,0-1.01,0-1.5,0
			C0.02,5.9,0.02,6.79,0.02,7.69z"/>
	</g>
	<g>
		<path class="st0" d="M0.02,7.69c0-0.91,0-1.79,0-2.7c0.5,0,0.99,0,1.5,0c0-0.09,0-0.15,0-0.22c0.01-0.63-0.01-1.26,0.02-1.89
			c0.04-0.69,0.27-1.33,0.72-1.86c0.48-0.57,1.12-0.89,1.85-0.93C5.1,0.02,6.08,0.04,7.08,0.02c0,0.89,0,1.76,0,2.65
			c-0.05,0-0.11,0-0.18,0c-0.49,0-0.97,0-1.46,0c-0.48,0-0.73,0.24-0.74,0.72c-0.01,0.53,0,1.05,0,1.6c0.81,0,1.6,0,2.42,0
			c-0.09,0.91-0.18,1.8-0.28,2.7c-0.72,0-1.42,0-2.14,0c0,2.55,0,5.09,0,7.64c-1.06,0-2.11,0-3.19,0c0-0.07,0-0.15,0-0.22
			c0-2.4,0-4.79,0-7.19c0-0.17-0.04-0.23-0.22-0.22c-0.36,0.02-0.72,0-1.09,0C0.16,7.69,0.1,7.69,0.02,7.69z"/>
	</g>
</g>
</svg>
