<?xml version="1.0" encoding="utf-8"?>
<!-- Generator: Adobe Illustrator 24.0.1, SVG Export Plug-In . SVG Version: 6.00 Build 0)  -->
<svg version="1.1" id="Layer_1" xmlns="http://www.w3.org/2000/svg" xmlns:xlink="http://www.w3.org/1999/xlink" x="0px" y="0px"
	 viewBox="0 0 17.96 17.98" style="enable-background:new 0 0 17.96 17.98;" xml:space="preserve">
<style type="text/css">
	.st0{fill:#FFFFFF;}
</style>
<g>
	<path class="st0" d="M17.57,3.28C16.96,1.59,15.74,0.59,14,0.21c-0.94-0.21-1.91-0.2-2.86-0.2C9.31,0,7.48,0.02,5.66,0.04
		C4.79,0.05,3.92,0.14,3.1,0.47C1.57,1.09,0.65,2.23,0.25,3.82C0.03,4.73,0.02,5.66,0.02,6.59c-0.01,1.94,0.01,3.87,0.03,5.81
		c0.01,0.94,0.13,1.87,0.54,2.73c0.66,1.39,1.76,2.24,3.25,2.59c0.7,0.17,1.41,0.2,2.12,0.22c0.11,0,0.22,0.02,0.33,0.03
		c1.8,0,3.6,0,5.41,0c0.43-0.02,0.85-0.04,1.28-0.07c1.16-0.08,2.25-0.38,3.16-1.14c0.94-0.78,1.48-1.79,1.66-2.98
		c0.09-0.58,0.14-1.17,0.14-1.76c0.02-2.07,0.01-4.14,0-6.21C17.94,4.95,17.87,4.1,17.57,3.28z M16.32,12.14
		c-0.01,0.57-0.06,1.15-0.19,1.7c-0.34,1.38-1.27,2.17-2.65,2.35c-1.01,0.13-2.04,0.12-3.06,0.15c-0.47,0.02-0.95,0-1.42,0
		c0,0.01,0,0.02,0,0.03c-1.29-0.03-2.58-0.05-3.88-0.1c-0.64-0.02-1.27-0.16-1.83-0.48c-0.92-0.53-1.41-1.37-1.51-2.4
		c-0.1-1-0.12-2.01-0.13-3.01c-0.02-1.45,0-2.9,0.03-4.35c0.01-0.6,0.05-1.21,0.17-1.79C2.12,2.89,3.05,2,4.42,1.8
		c0.77-0.11,1.56-0.14,2.34-0.15c1.68-0.02,3.37-0.02,5.05,0.01c0.63,0.01,1.28,0.05,1.9,0.17c1.42,0.28,2.33,1.26,2.5,2.71
		c0.1,0.86,0.13,1.74,0.14,2.61C16.36,8.81,16.35,10.48,16.32,12.14z"/>
	<path class="st0" d="M9,4.37C6.45,4.36,4.37,6.44,4.37,8.98c0,2.55,2.07,4.62,4.62,4.62c2.55,0,4.62-2.08,4.61-4.62
		C13.6,6.43,11.55,4.38,9,4.37z M8.99,11.97C7.33,11.97,6,10.64,6,8.99c0-1.66,1.34-3,3-2.99c1.66,0.01,2.99,1.34,2.98,3
		C11.98,10.65,10.65,11.97,8.99,11.97z"/>
	<path class="st0" d="M13.82,3.11c-0.6-0.01-1.09,0.45-1.1,1.04c-0.01,0.6,0.46,1.1,1.05,1.11c0.6,0.01,1.08-0.45,1.1-1.04
		C14.88,3.61,14.42,3.13,13.82,3.11z"/>
</g>
</svg>
