<?xml version="1.0" encoding="utf-8"?>
<!-- Generator: Adobe Illustrator 24.0.1, SVG Export Plug-In . SVG Version: 6.00 Build 0)  -->
<svg version="1.1" id="Layer_1" xmlns="http://www.w3.org/2000/svg" xmlns:xlink="http://www.w3.org/1999/xlink" x="0px" y="0px"
	 viewBox="0 0 15.35 15.3" style="enable-background:new 0 0 15.35 15.3;" xml:space="preserve">
<style type="text/css">
	.st0{fill:#F13A11;}
	.st1{fill:#FFFFFF;}
</style>
<g>
	<g>
		<path class="st0" d="M11.22,15.17c-0.31-0.07-0.64-0.1-0.94-0.21c-0.86-0.31-1.73-0.61-2.57-0.98c-0.96-0.42-1.79-1.07-2.58-1.75
			c-1.25-1.09-2.38-2.29-3.29-3.7C1.45,7.93,1.15,7.28,0.9,6.6C0.65,5.92,0.37,5.25,0.22,4.54c-0.21-1.01,0-1.94,0.5-2.83
			C0.86,1.47,1.03,1.24,1.19,1c0.24-0.34,0.56-0.57,0.97-0.67c0.33-0.08,0.67-0.14,1-0.2c0.29-0.06,0.49,0.05,0.64,0.3
			c0.22,0.39,0.43,0.79,0.66,1.18c0.31,0.54,0.63,1.07,0.95,1.6c0,0.01,0.01,0.02,0.02,0.02c0.27,0.42,0.26,0.63-0.08,0.99
			C5.1,4.49,4.81,4.71,4.55,4.95C4.36,5.12,4.16,5.27,3.98,5.44C3.63,5.78,3.6,5.96,3.83,6.39c0.83,1.52,1.83,2.9,3.25,3.93
			c0.63,0.46,1.29,0.87,1.98,1.22c0.28,0.14,0.52,0.1,0.73-0.13c0.28-0.31,0.55-0.64,0.83-0.95c0.15-0.17,0.3-0.35,0.47-0.5
			c0.36-0.32,0.55-0.33,0.97-0.08c0.74,0.44,1.48,0.87,2.23,1.31c0.19,0.11,0.4,0.21,0.58,0.34c0.12,0.09,0.21,0.22,0.32,0.33
			c0,0.11,0,0.22,0,0.32c-0.07,0.32-0.13,0.64-0.21,0.96c-0.08,0.34-0.24,0.64-0.51,0.87c-0.66,0.55-1.39,0.94-2.23,1.11
			c-0.12,0.02-0.25,0.04-0.37,0.06C11.65,15.17,11.44,15.17,11.22,15.17z"/>
	</g>
</g>
</svg>
